<mxfile host="app.diagrams.net" agent="Mozilla/5.0 (Windows NT 10.0; Win64; x64; rv:131.0) Gecko/20100101 Firefox/131.0" version="24.8.0">
  <diagram name="Pagina-1" id="WEDdbitrVK0wtf-hzy_Y">
    <mxGraphModel dx="1195" dy="645" grid="1" gridSize="10" guides="1" tooltips="1" connect="1" arrows="1" fold="1" page="1" pageScale="1" pageWidth="827" pageHeight="1169" math="0" shadow="0">
      <root>
        <mxCell id="0" />
        <mxCell id="1" parent="0" />
        <mxCell id="6oTfmbWfJ7Sm30HUCNoA-73" value="" style="edgeStyle=orthogonalEdgeStyle;rounded=0;orthogonalLoop=1;jettySize=auto;html=1;entryX=0.5;entryY=0;entryDx=0;entryDy=0;fillColor=#f8cecc;strokeColor=#b85450;" parent="1" source="6oTfmbWfJ7Sm30HUCNoA-2" target="6oTfmbWfJ7Sm30HUCNoA-4" edge="1">
          <mxGeometry relative="1" as="geometry" />
        </mxCell>
        <mxCell id="6oTfmbWfJ7Sm30HUCNoA-2" value="" style="ellipse;html=1;shape=startState;fillColor=#000000;strokeColor=#ff0000;" parent="1" vertex="1">
          <mxGeometry x="384" width="30" height="30" as="geometry" />
        </mxCell>
        <mxCell id="6oTfmbWfJ7Sm30HUCNoA-74" value="" style="edgeStyle=orthogonalEdgeStyle;rounded=0;orthogonalLoop=1;jettySize=auto;html=1;entryX=0.505;entryY=0.444;entryDx=0;entryDy=0;entryPerimeter=0;fillColor=#f8cecc;strokeColor=#b85450;" parent="1" source="6oTfmbWfJ7Sm30HUCNoA-4" target="6oTfmbWfJ7Sm30HUCNoA-6" edge="1">
          <mxGeometry relative="1" as="geometry">
            <Array as="points">
              <mxPoint x="400" y="110" />
              <mxPoint x="400" y="110" />
            </Array>
          </mxGeometry>
        </mxCell>
        <mxCell id="6oTfmbWfJ7Sm30HUCNoA-4" value="Background study" style="rounded=1;whiteSpace=wrap;html=1;arcSize=40;fontColor=#000000;fillColor=#ffffc0;strokeColor=#ff0000;" parent="1" vertex="1">
          <mxGeometry x="339" y="70" width="120" height="40" as="geometry" />
        </mxCell>
        <mxCell id="6oTfmbWfJ7Sm30HUCNoA-75" value="" style="edgeStyle=orthogonalEdgeStyle;rounded=0;orthogonalLoop=1;jettySize=auto;html=1;entryX=0.5;entryY=0;entryDx=0;entryDy=0;exitX=0.727;exitY=0.507;exitDx=0;exitDy=0;exitPerimeter=0;fillColor=#f8cecc;strokeColor=#b85450;" parent="1" source="6oTfmbWfJ7Sm30HUCNoA-6" target="6oTfmbWfJ7Sm30HUCNoA-10" edge="1">
          <mxGeometry relative="1" as="geometry">
            <Array as="points">
              <mxPoint x="444" y="160" />
              <mxPoint x="500" y="160" />
            </Array>
          </mxGeometry>
        </mxCell>
        <mxCell id="pDNAQS96Y4eRlYrxa5AR-71" value="" style="edgeStyle=orthogonalEdgeStyle;rounded=0;orthogonalLoop=1;jettySize=auto;html=1;exitX=0.927;exitY=0.511;exitDx=0;exitDy=0;exitPerimeter=0;entryX=0.5;entryY=0;entryDx=0;entryDy=0;fillColor=#f8cecc;strokeColor=#b85450;" edge="1" parent="1" source="6oTfmbWfJ7Sm30HUCNoA-6" target="pDNAQS96Y4eRlYrxa5AR-69">
          <mxGeometry relative="1" as="geometry">
            <Array as="points">
              <mxPoint x="564" y="170" />
              <mxPoint x="639" y="170" />
            </Array>
          </mxGeometry>
        </mxCell>
        <mxCell id="6oTfmbWfJ7Sm30HUCNoA-6" value="" style="shape=line;html=1;strokeWidth=6;strokeColor=#ff0000;" parent="1" vertex="1">
          <mxGeometry x="110" y="100" width="490" height="90" as="geometry" />
        </mxCell>
        <mxCell id="6oTfmbWfJ7Sm30HUCNoA-8" value="intervista con il porprietario del progetto" style="rounded=1;whiteSpace=wrap;html=1;arcSize=40;fontColor=#000000;fillColor=#ffffc0;strokeColor=#ff0000;" parent="1" vertex="1">
          <mxGeometry x="240" y="190" width="120" height="70" as="geometry" />
        </mxCell>
        <mxCell id="6oTfmbWfJ7Sm30HUCNoA-9" value="" style="edgeStyle=orthogonalEdgeStyle;html=1;verticalAlign=bottom;endArrow=open;endSize=8;strokeColor=#ff0000;rounded=0;entryX=0.25;entryY=0.5;entryDx=0;entryDy=0;entryPerimeter=0;" parent="1" source="6oTfmbWfJ7Sm30HUCNoA-8" target="6oTfmbWfJ7Sm30HUCNoA-16" edge="1">
          <mxGeometry relative="1" as="geometry">
            <mxPoint x="300" y="340" as="targetPoint" />
          </mxGeometry>
        </mxCell>
        <mxCell id="6oTfmbWfJ7Sm30HUCNoA-10" value="brainstroming iniziale" style="rounded=1;whiteSpace=wrap;html=1;arcSize=40;fontColor=#000000;fillColor=#ffffc0;strokeColor=#ff0000;" parent="1" vertex="1">
          <mxGeometry x="440" y="190" width="120" height="50" as="geometry" />
        </mxCell>
        <mxCell id="6oTfmbWfJ7Sm30HUCNoA-11" value="" style="edgeStyle=orthogonalEdgeStyle;html=1;verticalAlign=bottom;endArrow=open;endSize=8;strokeColor=#ff0000;rounded=0;entryX=0.75;entryY=0.5;entryDx=0;entryDy=0;entryPerimeter=0;" parent="1" source="6oTfmbWfJ7Sm30HUCNoA-10" target="6oTfmbWfJ7Sm30HUCNoA-16" edge="1">
          <mxGeometry relative="1" as="geometry">
            <mxPoint x="500" y="340" as="targetPoint" />
          </mxGeometry>
        </mxCell>
        <mxCell id="6oTfmbWfJ7Sm30HUCNoA-13" value="" style="edgeStyle=orthogonalEdgeStyle;html=1;verticalAlign=bottom;endArrow=open;endSize=8;strokeColor=#ff0000;rounded=0;entryX=0.532;entryY=0.045;entryDx=0;entryDy=0;entryPerimeter=0;exitX=0.25;exitY=0.5;exitDx=0;exitDy=0;exitPerimeter=0;" parent="1" source="6oTfmbWfJ7Sm30HUCNoA-6" target="6oTfmbWfJ7Sm30HUCNoA-8" edge="1">
          <mxGeometry relative="1" as="geometry">
            <mxPoint x="415" y="270" as="targetPoint" />
            <mxPoint x="340" y="209" as="sourcePoint" />
            <Array as="points">
              <mxPoint x="350" y="145" />
              <mxPoint x="350" y="160" />
              <mxPoint x="304" y="160" />
            </Array>
          </mxGeometry>
        </mxCell>
        <mxCell id="pDNAQS96Y4eRlYrxa5AR-49" value="" style="edgeStyle=orthogonalEdgeStyle;rounded=0;orthogonalLoop=1;jettySize=auto;html=1;fillColor=#f8cecc;strokeColor=#b85450;" edge="1" parent="1" source="6oTfmbWfJ7Sm30HUCNoA-16" target="6oTfmbWfJ7Sm30HUCNoA-25">
          <mxGeometry relative="1" as="geometry" />
        </mxCell>
        <mxCell id="6oTfmbWfJ7Sm30HUCNoA-16" value="" style="shape=line;html=1;strokeWidth=6;strokeColor=#ff0000;" parent="1" vertex="1">
          <mxGeometry x="80" y="290" width="570" height="10" as="geometry" />
        </mxCell>
        <mxCell id="6oTfmbWfJ7Sm30HUCNoA-18" value="presentazione del sistema" style="rounded=1;whiteSpace=wrap;html=1;arcSize=40;fontColor=#000000;fillColor=#ffffc0;strokeColor=#ff0000;" parent="1" vertex="1">
          <mxGeometry x="345" y="480" width="120" height="40" as="geometry" />
        </mxCell>
        <mxCell id="6oTfmbWfJ7Sm30HUCNoA-84" value="" style="edgeStyle=orthogonalEdgeStyle;rounded=0;orthogonalLoop=1;jettySize=auto;html=1;fillColor=#f8cecc;strokeColor=#b85450;" parent="1" source="6oTfmbWfJ7Sm30HUCNoA-18" target="6oTfmbWfJ7Sm30HUCNoA-27" edge="1">
          <mxGeometry relative="1" as="geometry">
            <mxPoint x="405" y="470" as="sourcePoint" />
          </mxGeometry>
        </mxCell>
        <mxCell id="pDNAQS96Y4eRlYrxa5AR-55" value="" style="edgeStyle=orthogonalEdgeStyle;rounded=0;orthogonalLoop=1;jettySize=auto;html=1;fillColor=#f8cecc;strokeColor=#b85450;" edge="1" parent="1" source="6oTfmbWfJ7Sm30HUCNoA-25" target="pDNAQS96Y4eRlYrxa5AR-52">
          <mxGeometry relative="1" as="geometry" />
        </mxCell>
        <mxCell id="6oTfmbWfJ7Sm30HUCNoA-25" value="miglioramento dell&#39; applicazione /prototyping" style="rounded=1;whiteSpace=wrap;html=1;arcSize=40;fontColor=#000000;fillColor=#ffffc0;strokeColor=#ff0000;" parent="1" vertex="1">
          <mxGeometry x="345" y="330" width="120" height="50" as="geometry" />
        </mxCell>
        <mxCell id="6oTfmbWfJ7Sm30HUCNoA-27" value="scelta abbinamento task-stakeholder" style="rounded=1;whiteSpace=wrap;html=1;arcSize=40;fontColor=#000000;fillColor=#ffffc0;strokeColor=#ff0000;" parent="1" vertex="1">
          <mxGeometry x="345" y="564" width="120" height="40" as="geometry" />
        </mxCell>
        <mxCell id="6oTfmbWfJ7Sm30HUCNoA-28" value="" style="edgeStyle=orthogonalEdgeStyle;html=1;verticalAlign=bottom;endArrow=open;endSize=8;strokeColor=#ff0000;rounded=0;entryX=0.5;entryY=0;entryDx=0;entryDy=0;" parent="1" source="6oTfmbWfJ7Sm30HUCNoA-27" target="pDNAQS96Y4eRlYrxa5AR-17" edge="1">
          <mxGeometry relative="1" as="geometry">
            <mxPoint x="506.5" y="644.6600000000001" as="targetPoint" />
            <Array as="points" />
          </mxGeometry>
        </mxCell>
        <mxCell id="6oTfmbWfJ7Sm30HUCNoA-60" value="" style="edgeStyle=orthogonalEdgeStyle;rounded=0;orthogonalLoop=1;jettySize=auto;html=1;fillColor=#f8cecc;strokeColor=#b85450;" parent="1" source="6oTfmbWfJ7Sm30HUCNoA-38" target="6oTfmbWfJ7Sm30HUCNoA-53" edge="1">
          <mxGeometry relative="1" as="geometry" />
        </mxCell>
        <mxCell id="6oTfmbWfJ7Sm30HUCNoA-38" value="testing applicazione" style="rounded=1;whiteSpace=wrap;html=1;arcSize=40;fontColor=#000000;fillColor=#ffffc0;strokeColor=#ff0000;" parent="1" vertex="1">
          <mxGeometry x="260" y="840" width="120" height="40" as="geometry" />
        </mxCell>
        <mxCell id="6oTfmbWfJ7Sm30HUCNoA-82" value="" style="edgeStyle=orthogonalEdgeStyle;rounded=0;orthogonalLoop=1;jettySize=auto;html=1;fillColor=#f8cecc;strokeColor=#b85450;" parent="1" source="6oTfmbWfJ7Sm30HUCNoA-47" target="6oTfmbWfJ7Sm30HUCNoA-27" edge="1">
          <mxGeometry relative="1" as="geometry">
            <Array as="points">
              <mxPoint x="620" y="430" />
              <mxPoint x="620" y="570" />
            </Array>
          </mxGeometry>
        </mxCell>
        <mxCell id="6oTfmbWfJ7Sm30HUCNoA-83" value="&lt;div&gt;no&lt;/div&gt;" style="edgeLabel;html=1;align=center;verticalAlign=middle;resizable=0;points=[];" parent="6oTfmbWfJ7Sm30HUCNoA-82" vertex="1" connectable="0">
          <mxGeometry x="-0.9144" y="3" relative="1" as="geometry">
            <mxPoint x="12" y="-7" as="offset" />
          </mxGeometry>
        </mxCell>
        <mxCell id="pDNAQS96Y4eRlYrxa5AR-50" value="" style="edgeStyle=orthogonalEdgeStyle;rounded=0;orthogonalLoop=1;jettySize=auto;html=1;fillColor=#f8cecc;strokeColor=#b85450;" edge="1" parent="1" source="6oTfmbWfJ7Sm30HUCNoA-47" target="6oTfmbWfJ7Sm30HUCNoA-18">
          <mxGeometry relative="1" as="geometry">
            <Array as="points">
              <mxPoint x="470" y="510" />
              <mxPoint x="470" y="510" />
            </Array>
          </mxGeometry>
        </mxCell>
        <mxCell id="pDNAQS96Y4eRlYrxa5AR-51" value="si" style="edgeLabel;html=1;align=center;verticalAlign=middle;resizable=0;points=[];" vertex="1" connectable="0" parent="pDNAQS96Y4eRlYrxa5AR-50">
          <mxGeometry x="-0.5082" relative="1" as="geometry">
            <mxPoint x="10" y="-15" as="offset" />
          </mxGeometry>
        </mxCell>
        <mxCell id="6oTfmbWfJ7Sm30HUCNoA-47" value="&lt;font style=&quot;font-size: 9px;&quot;&gt;sono state effettuate modifiche significative al sistema?&lt;/font&gt;" style="rhombus;whiteSpace=wrap;html=1;fontColor=#000000;fillColor=#ffffc0;strokeColor=#ff0000;" parent="1" vertex="1">
          <mxGeometry x="505" y="385" width="90" height="90" as="geometry" />
        </mxCell>
        <mxCell id="6oTfmbWfJ7Sm30HUCNoA-53" value="quiz (feedback utenti)" style="rounded=1;whiteSpace=wrap;html=1;arcSize=40;fontColor=#000000;fillColor=#ffffc0;strokeColor=#ff0000;" parent="1" vertex="1">
          <mxGeometry x="260" y="930" width="120" height="40" as="geometry" />
        </mxCell>
        <mxCell id="6oTfmbWfJ7Sm30HUCNoA-54" value="" style="edgeStyle=orthogonalEdgeStyle;html=1;verticalAlign=bottom;endArrow=open;endSize=8;strokeColor=#ff0000;rounded=0;entryX=0;entryY=0.75;entryDx=0;entryDy=0;" parent="1" source="6oTfmbWfJ7Sm30HUCNoA-53" target="6oTfmbWfJ7Sm30HUCNoA-65" edge="1">
          <mxGeometry relative="1" as="geometry">
            <mxPoint x="394.68000000000006" y="1024.14" as="targetPoint" />
            <Array as="points">
              <mxPoint x="320" y="1130" />
            </Array>
          </mxGeometry>
        </mxCell>
        <mxCell id="6oTfmbWfJ7Sm30HUCNoA-65" value="organizzazione dati raccolti" style="rounded=1;whiteSpace=wrap;html=1;arcSize=40;fontColor=#000000;fillColor=#ffffc0;strokeColor=#ff0000;" parent="1" vertex="1">
          <mxGeometry x="480" y="1100" width="120" height="40" as="geometry" />
        </mxCell>
        <mxCell id="6oTfmbWfJ7Sm30HUCNoA-66" value="" style="edgeStyle=orthogonalEdgeStyle;html=1;verticalAlign=bottom;endArrow=open;endSize=8;strokeColor=#ff0000;rounded=0;entryX=0.5;entryY=0;entryDx=0;entryDy=0;" parent="1" source="6oTfmbWfJ7Sm30HUCNoA-65" target="6oTfmbWfJ7Sm30HUCNoA-68" edge="1">
          <mxGeometry relative="1" as="geometry">
            <mxPoint x="540" y="1040" as="targetPoint" />
          </mxGeometry>
        </mxCell>
        <mxCell id="pDNAQS96Y4eRlYrxa5AR-66" value="" style="edgeStyle=orthogonalEdgeStyle;rounded=0;orthogonalLoop=1;jettySize=auto;html=1;fillColor=#f8cecc;strokeColor=#b85450;" edge="1" parent="1" source="6oTfmbWfJ7Sm30HUCNoA-68" target="pDNAQS96Y4eRlYrxa5AR-64">
          <mxGeometry relative="1" as="geometry" />
        </mxCell>
        <mxCell id="pDNAQS96Y4eRlYrxa5AR-67" value="si" style="edgeLabel;html=1;align=center;verticalAlign=middle;resizable=0;points=[];" vertex="1" connectable="0" parent="pDNAQS96Y4eRlYrxa5AR-66">
          <mxGeometry x="-0.1841" relative="1" as="geometry">
            <mxPoint x="-27" y="-20" as="offset" />
          </mxGeometry>
        </mxCell>
        <mxCell id="6oTfmbWfJ7Sm30HUCNoA-68" value="&lt;font style=&quot;font-size: 9px;&quot;&gt;è necessario migliorare l&#39;applicazione?&lt;/font&gt;" style="rhombus;whiteSpace=wrap;html=1;fontColor=#000000;fillColor=#ffffc0;strokeColor=#ff0000;" parent="1" vertex="1">
          <mxGeometry x="490" y="1200" width="100" height="60" as="geometry" />
        </mxCell>
        <mxCell id="6oTfmbWfJ7Sm30HUCNoA-70" value="no" style="edgeStyle=orthogonalEdgeStyle;html=1;align=left;verticalAlign=top;endArrow=open;endSize=8;strokeColor=#ff0000;rounded=0;" parent="1" source="6oTfmbWfJ7Sm30HUCNoA-68" target="6oTfmbWfJ7Sm30HUCNoA-71" edge="1">
          <mxGeometry x="-1" relative="1" as="geometry">
            <mxPoint x="540" y="1125" as="targetPoint" />
          </mxGeometry>
        </mxCell>
        <mxCell id="6oTfmbWfJ7Sm30HUCNoA-71" value="" style="ellipse;html=1;shape=endState;fillColor=#000000;strokeColor=#ff0000;" parent="1" vertex="1">
          <mxGeometry x="525" y="1310" width="30" height="30" as="geometry" />
        </mxCell>
        <mxCell id="6oTfmbWfJ7Sm30HUCNoA-87" value="" style="edgeStyle=orthogonalEdgeStyle;html=1;verticalAlign=bottom;endArrow=open;endSize=8;strokeColor=#ff0000;rounded=0;exitX=1;exitY=0.5;exitDx=0;exitDy=0;entryX=1.005;entryY=0.582;entryDx=0;entryDy=0;entryPerimeter=0;" parent="1" source="pDNAQS96Y4eRlYrxa5AR-64" target="6oTfmbWfJ7Sm30HUCNoA-25" edge="1">
          <mxGeometry relative="1" as="geometry">
            <mxPoint x="470" y="360" as="targetPoint" />
            <mxPoint x="628.5" y="1008" as="sourcePoint" />
            <Array as="points">
              <mxPoint x="790" y="1230" />
              <mxPoint x="1020" y="1230" />
              <mxPoint x="1020" y="359" />
            </Array>
          </mxGeometry>
        </mxCell>
        <mxCell id="pDNAQS96Y4eRlYrxa5AR-15" value="" style="edgeStyle=orthogonalEdgeStyle;rounded=0;orthogonalLoop=1;jettySize=auto;html=1;fillColor=#f8cecc;strokeColor=#b85450;" edge="1" parent="1" source="pDNAQS96Y4eRlYrxa5AR-17" target="pDNAQS96Y4eRlYrxa5AR-18">
          <mxGeometry relative="1" as="geometry" />
        </mxCell>
        <mxCell id="pDNAQS96Y4eRlYrxa5AR-16" value="no" style="edgeLabel;html=1;align=center;verticalAlign=middle;resizable=0;points=[];" vertex="1" connectable="0" parent="pDNAQS96Y4eRlYrxa5AR-15">
          <mxGeometry x="0.5397" y="-2" relative="1" as="geometry">
            <mxPoint x="-6" y="-12" as="offset" />
          </mxGeometry>
        </mxCell>
        <mxCell id="pDNAQS96Y4eRlYrxa5AR-20" value="" style="edgeStyle=orthogonalEdgeStyle;rounded=0;orthogonalLoop=1;jettySize=auto;html=1;fillColor=#f8cecc;strokeColor=#b85450;" edge="1" parent="1" source="pDNAQS96Y4eRlYrxa5AR-17" target="6oTfmbWfJ7Sm30HUCNoA-38">
          <mxGeometry relative="1" as="geometry" />
        </mxCell>
        <mxCell id="pDNAQS96Y4eRlYrxa5AR-42" value="si" style="edgeLabel;html=1;align=center;verticalAlign=middle;resizable=0;points=[];" vertex="1" connectable="0" parent="pDNAQS96Y4eRlYrxa5AR-20">
          <mxGeometry x="-0.5" y="2" relative="1" as="geometry">
            <mxPoint x="-17" y="-5" as="offset" />
          </mxGeometry>
        </mxCell>
        <mxCell id="pDNAQS96Y4eRlYrxa5AR-17" value="è la prima volta che si fa l&#39;activity?" style="rhombus;whiteSpace=wrap;html=1;fontColor=#000000;fillColor=#ffffc0;strokeColor=#ff0000;" vertex="1" parent="1">
          <mxGeometry x="280" y="720" width="80" height="60" as="geometry" />
        </mxCell>
        <mxCell id="pDNAQS96Y4eRlYrxa5AR-21" value="" style="edgeStyle=orthogonalEdgeStyle;rounded=0;orthogonalLoop=1;jettySize=auto;html=1;entryX=0.75;entryY=0;entryDx=0;entryDy=0;fillColor=#f8cecc;strokeColor=#b85450;" edge="1" parent="1" source="pDNAQS96Y4eRlYrxa5AR-18" target="6oTfmbWfJ7Sm30HUCNoA-38">
          <mxGeometry relative="1" as="geometry">
            <Array as="points">
              <mxPoint x="420" y="800" />
              <mxPoint x="350" y="800" />
            </Array>
          </mxGeometry>
        </mxCell>
        <mxCell id="pDNAQS96Y4eRlYrxa5AR-22" value="si" style="edgeLabel;html=1;align=center;verticalAlign=middle;resizable=0;points=[];" vertex="1" connectable="0" parent="pDNAQS96Y4eRlYrxa5AR-21">
          <mxGeometry x="-0.6167" y="-4" relative="1" as="geometry">
            <mxPoint x="-22" y="-6" as="offset" />
          </mxGeometry>
        </mxCell>
        <mxCell id="pDNAQS96Y4eRlYrxa5AR-23" value="" style="edgeStyle=orthogonalEdgeStyle;rounded=0;orthogonalLoop=1;jettySize=auto;html=1;fillColor=#f8cecc;strokeColor=#b85450;exitX=1;exitY=0.5;exitDx=0;exitDy=0;entryX=-0.042;entryY=0.438;entryDx=0;entryDy=0;entryPerimeter=0;" edge="1" parent="1" source="pDNAQS96Y4eRlYrxa5AR-18" target="6oTfmbWfJ7Sm30HUCNoA-65">
          <mxGeometry relative="1" as="geometry">
            <mxPoint x="464.01" y="749.48" as="sourcePoint" />
            <mxPoint x="430" y="1025" as="targetPoint" />
            <Array as="points">
              <mxPoint x="470" y="750" />
              <mxPoint x="470" y="820" />
              <mxPoint x="430" y="820" />
              <mxPoint x="430" y="1118" />
            </Array>
          </mxGeometry>
        </mxCell>
        <mxCell id="pDNAQS96Y4eRlYrxa5AR-31" value="no" style="edgeLabel;html=1;align=center;verticalAlign=middle;resizable=0;points=[];" vertex="1" connectable="0" parent="pDNAQS96Y4eRlYrxa5AR-23">
          <mxGeometry x="-0.9326" y="2" relative="1" as="geometry">
            <mxPoint y="-8" as="offset" />
          </mxGeometry>
        </mxCell>
        <mxCell id="pDNAQS96Y4eRlYrxa5AR-18" value="è necessario ri fare l&#39;activity?" style="rhombus;whiteSpace=wrap;html=1;fontColor=#000000;fillColor=#ffffc0;strokeColor=#ff0000;" vertex="1" parent="1">
          <mxGeometry x="390" y="710" width="60" height="80" as="geometry" />
        </mxCell>
        <mxCell id="pDNAQS96Y4eRlYrxa5AR-59" value="" style="edgeStyle=orthogonalEdgeStyle;rounded=0;orthogonalLoop=1;jettySize=auto;html=1;entryX=0.5;entryY=0;entryDx=0;entryDy=0;fillColor=#f8cecc;strokeColor=#b85450;" edge="1" parent="1" source="pDNAQS96Y4eRlYrxa5AR-52" target="6oTfmbWfJ7Sm30HUCNoA-18">
          <mxGeometry relative="1" as="geometry" />
        </mxCell>
        <mxCell id="pDNAQS96Y4eRlYrxa5AR-61" value="&lt;div&gt;no&lt;/div&gt;" style="edgeLabel;html=1;align=center;verticalAlign=middle;resizable=0;points=[];" vertex="1" connectable="0" parent="pDNAQS96Y4eRlYrxa5AR-59">
          <mxGeometry x="0.1254" relative="1" as="geometry">
            <mxPoint x="15" as="offset" />
          </mxGeometry>
        </mxCell>
        <mxCell id="pDNAQS96Y4eRlYrxa5AR-62" value="" style="edgeStyle=orthogonalEdgeStyle;rounded=0;orthogonalLoop=1;jettySize=auto;html=1;fillColor=#f8cecc;strokeColor=#b85450;" edge="1" parent="1" source="pDNAQS96Y4eRlYrxa5AR-52" target="6oTfmbWfJ7Sm30HUCNoA-47">
          <mxGeometry relative="1" as="geometry" />
        </mxCell>
        <mxCell id="pDNAQS96Y4eRlYrxa5AR-63" value="si" style="edgeLabel;html=1;align=center;verticalAlign=middle;resizable=0;points=[];" vertex="1" connectable="0" parent="pDNAQS96Y4eRlYrxa5AR-62">
          <mxGeometry x="-0.4321" y="4" relative="1" as="geometry">
            <mxPoint x="7" y="-6" as="offset" />
          </mxGeometry>
        </mxCell>
        <mxCell id="pDNAQS96Y4eRlYrxa5AR-52" value="&lt;font style=&quot;font-size: 10px;&quot;&gt;è già stato presentato il sistema?&lt;/font&gt;" style="rhombus;whiteSpace=wrap;html=1;fontColor=#000000;fillColor=#ffffc0;strokeColor=#ff0000;" vertex="1" parent="1">
          <mxGeometry x="360" y="400" width="90" height="60" as="geometry" />
        </mxCell>
        <mxCell id="pDNAQS96Y4eRlYrxa5AR-64" value="workshop con team di sviluppo e gestione" style="rounded=1;whiteSpace=wrap;html=1;arcSize=40;fontColor=#000000;fillColor=#ffffc0;strokeColor=#ff0000;" vertex="1" parent="1">
          <mxGeometry x="680" y="1210" width="120" height="40" as="geometry" />
        </mxCell>
        <mxCell id="pDNAQS96Y4eRlYrxa5AR-74" value="" style="edgeStyle=orthogonalEdgeStyle;rounded=0;orthogonalLoop=1;jettySize=auto;html=1;entryX=0.13;entryY=0.229;entryDx=0;entryDy=0;entryPerimeter=0;fillColor=#f8cecc;strokeColor=#b85450;" edge="1" parent="1" source="pDNAQS96Y4eRlYrxa5AR-68" target="6oTfmbWfJ7Sm30HUCNoA-16">
          <mxGeometry relative="1" as="geometry">
            <Array as="points">
              <mxPoint x="150" y="270" />
              <mxPoint x="154" y="270" />
            </Array>
          </mxGeometry>
        </mxCell>
        <mxCell id="pDNAQS96Y4eRlYrxa5AR-68" value="riunione con i partner di promozione alimentare" style="rounded=1;whiteSpace=wrap;html=1;arcSize=40;fontColor=#000000;fillColor=#ffffc0;strokeColor=#ff0000;" vertex="1" parent="1">
          <mxGeometry x="90" y="200" width="120" height="50" as="geometry" />
        </mxCell>
        <mxCell id="pDNAQS96Y4eRlYrxa5AR-69" value="riunione con il personale medico" style="rounded=1;whiteSpace=wrap;html=1;arcSize=40;fontColor=#000000;fillColor=#ffffc0;strokeColor=#ff0000;" vertex="1" parent="1">
          <mxGeometry x="579" y="190" width="120" height="40" as="geometry" />
        </mxCell>
        <mxCell id="pDNAQS96Y4eRlYrxa5AR-70" value="" style="edgeStyle=orthogonalEdgeStyle;html=1;verticalAlign=bottom;endArrow=open;endSize=8;strokeColor=#ff0000;rounded=0;entryX=0.974;entryY=0.514;entryDx=0;entryDy=0;entryPerimeter=0;" edge="1" source="pDNAQS96Y4eRlYrxa5AR-69" parent="1" target="6oTfmbWfJ7Sm30HUCNoA-16">
          <mxGeometry relative="1" as="geometry">
            <mxPoint x="639" y="290" as="targetPoint" />
          </mxGeometry>
        </mxCell>
        <mxCell id="pDNAQS96Y4eRlYrxa5AR-73" value="" style="edgeStyle=orthogonalEdgeStyle;html=1;verticalAlign=bottom;endArrow=open;endSize=8;strokeColor=#ff0000;rounded=0;exitX=0.237;exitY=0.524;exitDx=0;exitDy=0;exitPerimeter=0;entryX=0.535;entryY=0.051;entryDx=0;entryDy=0;entryPerimeter=0;" edge="1" source="6oTfmbWfJ7Sm30HUCNoA-6" parent="1" target="pDNAQS96Y4eRlYrxa5AR-68">
          <mxGeometry relative="1" as="geometry">
            <mxPoint x="320" y="320" as="targetPoint" />
            <mxPoint x="320.02857142857147" y="250" as="sourcePoint" />
            <Array as="points">
              <mxPoint x="226" y="170" />
              <mxPoint x="154" y="170" />
            </Array>
          </mxGeometry>
        </mxCell>
      </root>
    </mxGraphModel>
  </diagram>
</mxfile>
